<svg xmlns="http://www.w3.org/2000/svg" viewBox="0 0 266 60" width="266" height="60"><title>Acc_Technology_Lockup_BLK</title><path fill="#00D700" d="M76.59 17.208l7.535-2.8-7.535-2.945v-3.9l12.912 5.2v3.234L76.59 21.22"/><path d="M5.238 42.076C2.526 42.076.27 40.688.27 37.63v-.177c0-3.723 3.21-4.943 7.135-4.943h1.878v-.722c0-1.5-.666-2.407-2.223-2.407-1.137-.115-2.154.712-2.27 1.85l-.01.117H.77c.29-3.354 2.945-5 6.524-5s6.243 1.558 6.243 5.313v10.11H9.37V40.04c-.942 1.337-2.498 2.105-4.132 2.038zm4.012-5.344v-1.476H7.605c-2.078 0-3.146.578-3.146 1.934v.144c0 1.043.633 1.765 2.053 1.765s2.768-.78 2.768-2.368h-.03zm13.778 5.344c-4.19 0-7.222-2.6-7.222-7.71v-.202c0-5.112 3.21-7.824 7.222-7.824 3.434 0 6.267 1.733 6.612 5.69h-4.012c-.257-1.47-1.01-2.408-2.488-2.408-1.79 0-3.033 1.412-3.033 4.39v.44c0 3.065 1.1 4.446 3.065 4.446 1.444 0 2.512-1.067 2.744-2.712h3.836c-.25 3.434-2.592 5.89-6.692 5.89h-.032zm15.71 0c-4.188 0-7.22-2.6-7.22-7.71v-.202c0-5.112 3.21-7.824 7.22-7.824 3.435 0 6.268 1.733 6.613 5.69h-4.01c-.258-1.47-1.012-2.408-2.49-2.408-1.788 0-3.032 1.412-3.032 4.39v.44c0 3.065 1.1 4.446 3.065 4.446 1.444 0 2.512-1.067 2.744-2.712h3.844c-.256 3.434-2.59 5.89-6.69 5.89h-.04zm15.834 0c-4.365 0-7.334-2.6-7.334-7.623v-.29c0-5.054 3.146-7.823 7.222-7.823 3.755 0 6.9 2.11 6.9 7.102v1.813h-9.813c.177 2.712 1.332 3.755 3.146 3.755 1.284.122 2.465-.714 2.776-1.966h3.9c-.466 2.865-2.8 5.03-6.74 5.03h-.058zm-3.002-9.63h5.665c-.088-2.222-1.1-3.21-2.776-3.21-1.3.05-2.513.77-2.858 3.227l-.032-.016zm12.366-5.8h4.213V28.9c.9-1.663 2.676-2.66 4.565-2.568 2.744 0 4.566 1.645 4.566 5.312v10.11h-4.196v-9.468c0-1.765-.722-2.544-2.255-2.544-1.395-.08-2.59.986-2.668 2.38-.008.14-.004.28.01.42v9.213H63.96l-.024-15.11zm21.233-4.567v4.565h2.888v3.146h-2.89v7.167c0 1.123.523 1.645 1.502 1.645.502.017 1.002-.07 1.468-.257v3.33c-.783.22-1.594.328-2.407.32-3.29 0-4.814-1.5-4.814-4.565V29.8H79.15v-3.147h1.765V23.82l4.254-1.74zm18.776 19.667h-4.22v-2.223c-.823 1.65-2.55 2.65-4.39 2.544-2.712 0-4.71-1.645-4.71-5.2V26.653h4.245v9.63c0 1.732.69 2.543 2.2 2.543 1.403.07 2.597-1.012 2.666-2.415.006-.128.003-.256-.01-.385v-9.372h4.22v15.094zm3.065-15.11h4.214v2.768c.68-1.892 2.528-3.106 4.534-2.977v4.157c-2.857 0-4.534.867-4.534 3.378v7.768h-4.213V26.638zm17.43 15.44c-4.365 0-7.334-2.6-7.334-7.624v-.29c0-5.054 3.146-7.823 7.222-7.823 3.755 0 6.9 2.11 6.9 7.102v1.813h-9.83c.178 2.712 1.333 3.755 3.147 3.755 1.284.122 2.465-.714 2.776-1.966h3.9c-.465 2.865-2.768 5.032-6.78 5.032zm-3-9.63h5.664c-.088-2.223-1.1-3.21-2.776-3.21-1.316.048-2.528.77-2.873 3.226l-.016-.016z"/><path d="M137.776 23.307v3.354h3.266v1.847h-3.266v9.445c0 1.468.61 2.134 1.79 2.134.546.02 1.09-.067 1.604-.257v1.845c-.574.203-1.18.3-1.79.29-2.567 0-3.81-1.477-3.81-3.78v-9.63h-1.983V26.71h1.99v-3.354l2.2-.05zm11.644 18.69c-3.868 0-6.5-2.633-6.5-6.878v-1.766c0-4.19 2.568-6.933 6.323-6.933 3.29 0 6.066 1.967 6.066 6.733v1.444H145.14v.49c0 3.377 1.5 5.11 4.3 5.11 2.135 0 3.38-.922 3.668-2.687h2.134c-.4 2.977-2.656 4.478-5.834 4.478l.01.008zm-4.277-9.15h7.968v-.32c-.087-3.065-1.604-4.3-3.867-4.3s-3.94 1.41-4.1 4.62zm18.92 9.157c-3.787 0-6.587-2.544-6.587-6.845v-1.79c0-4.245 2.89-6.933 6.5-6.933 2.945 0 5.545 1.356 5.89 5h-2.134c-.257-2.408-1.846-3.21-3.755-3.21-2.488 0-4.277 1.91-4.277 5.143v1.79c0 3.353 1.765 5.054 4.365 5.054 2.018.115 3.747-1.427 3.862-3.444.003-.056.005-.11.006-.167h2.022c-.125 3.1-2.74 5.51-5.838 5.387-.017 0-.034 0-.052-.002v.016zm8.667-22.18h2.167v9.124c.866-1.632 2.6-2.612 4.446-2.512 2.833 0 4.815 1.605 4.815 5.545v9.79h-2.2v-9.95c0-2.406-1.01-3.554-3.21-3.554-2.017-.104-3.737 1.448-3.84 3.466-.007.115-.007.23-.002.345v9.677h-2.167l-.01-21.93zm14.91 6.845h2.167v2.278c.864-1.635 2.6-2.618 4.446-2.52 2.833 0 4.815 1.605 4.815 5.545v9.79h-2.2V31.82c0-2.406-1.01-3.554-3.21-3.554-2.017-.104-3.737 1.448-3.84 3.466-.007.115-.007.23-.002.345v9.677h-2.167l-.01-15.085zm14.187 8.465V33.33c0-4.133 2.776-6.9 6.612-6.9s6.587 2.71 6.587 6.876v1.79c0 4.188-2.744 6.9-6.612 6.9s-6.596-2.833-6.596-6.877l.007.015zm10.977 0V33.37c0-3.21-1.7-5.144-4.365-5.144s-4.39 1.99-4.39 5.112v1.79c0 3.088 1.645 5.086 4.39 5.086 2.743 0 4.356-2.006 4.356-5.095l.008.015zm5.2-15.31h2.223v21.954h-2.223V19.823zm5.2 15.31V33.33c0-4.133 2.768-6.9 6.612-6.9s6.588 2.71 6.588 6.876v1.79c0 4.188-2.744 6.9-6.612 6.9s-6.596-2.833-6.596-6.877l.008.015zm10.977 0V33.37c0-3.21-1.7-5.144-4.364-5.144-2.664 0-4.39 1.99-4.39 5.112v1.79c0 3.088 1.646 5.086 4.39 5.086s4.357-2.006 4.357-5.095l.008.015zm10.834 11.788c-4.012 0-5.834-1.846-6.155-4.3h2.198c.29 1.676 1.605 2.487 3.932 2.487 2.656 0 4.3-1.3 4.3-4.3V38.64c-.97 1.656-2.734 2.684-4.653 2.712-3.523 0-6.01-2.568-6.01-6.5v-1.7c0-3.845 2.512-6.7 6.18-6.7 1.863-.085 3.608.916 4.477 2.567V26.68h2.167v14.195c-.007 4.092-2.63 6.026-6.443 6.026l.007.023zm4.3-12.245V33.12c0-3.088-1.604-4.878-4.244-4.878s-4.213 1.91-4.213 4.815v1.733c0 3.065 1.765 4.71 4.076 4.71 2.528.008 4.373-1.757 4.373-4.847l.01.025zm10.858 2.985l3.844-10.977h2.255L258.793 46.7h-2.2L259 40.28l-5.344-13.64h2.31l4.206 11.023z" fill="#00D700"/></svg>