<?xml version="1.0" encoding="UTF-8"?>
<svg width="1000px" height="250px" viewBox="0 0 1000 250" version="1.1" xmlns="http://www.w3.org/2000/svg" xmlns:xlink="http://www.w3.org/1999/xlink">
    <!-- Generator: Sketch 41.2 (35397) - http://www.bohemiancoding.com/sketch -->
    <title>logo-rect-1color-red-on-white</title>
    <desc>Created with Sketch.</desc>
    <defs></defs>
    <g id="Page-1" stroke="none" stroke-width="1" fill="none" fill-rule="evenodd">
        <g id="logo-rect-1color-red-on-white">
            <g id="Group" transform="translate(125.000000, 43.000000)">
                <g id="Clever-Square">
                    <rect id="Rectangle-1" fill="#CB243C" x="0" y="0" width="164.835578" height="165" rx="9.67741935"></rect>
                    <g id="logo-bottle" transform="translate(65.274889, 33.990000)" fill="#FFFFFF">
                        <g id="Page-1">
                            <g id="Group-7">
                                <path d="M15.4297845,27.3129942 L12.8159168,27.3129942 C12.8159168,27.3129942 12.5129709,27.5162337 12.6145218,27.8168232 L12.7126592,28.1182666 L13.0181651,32.1446284 C13.0181651,32.1446284 12.6145218,32.3470139 12.5129709,33.0506666 C12.4131268,33.7551732 13.2178533,35.6688692 13.2178533,35.6688692 C13.2178533,35.6688692 13.0181651,65.5023743 13.0181651,65.5869151 C12.9592826,73.9427903 1.31250922,79.1757796 1.58729388,89.23101 C1.78783547,96.609969 8.3178113,97.2905654 14.2197079,97.2905654 C19.0881753,97.2905654 27.111546,98.0181283 28.8507111,92.1387008 C32.4408324,80.011794 17.9079666,75.2202954 17.8431106,65.5869151 C17.8431106,65.5023743 17.6434224,35.6688692 17.6434224,35.6688692 C17.6434224,35.6688692 18.4481489,33.7551732 18.3483048,33.0506666 C18.246754,32.3470139 17.8431106,32.1446284 17.8431106,32.1446284 L18.1469098,28.1182666 L18.246754,27.8168232 C18.3483048,27.5162337 18.0445056,27.3129942 18.0445056,27.3129942 L15.4297845,27.3129942 L15.4297845,27.3129942 Z" id="Fill-1"></path>
                                <path d="M0.429187468,19.7541937 C1.10078849,21.3203331 3.46461926,21.9915358 4.35638935,21.9915358 L29.0639678,21.9915358 C29.9369638,21.9915358 31.6121262,21.3690081 32.51243,20.3237766 C34.1457773,18.434845 35.3106253,15.1642266 34.1619913,11.7065937 C32.3741843,6.34295028 28.800277,5.00310686 23.2132733,6.56753842 C22.5450858,4.10646211 21.4263197,-1.03259316 13.8330467,0.308104211 C8.479866,1.25171605 8.24774975,8.35399632 9.14122658,9.24807919 C0.429187468,9.08070554 -1.02068563,16.3665845 0.429187468,19.7541937" id="Fill-3"></path>
                                <polygon id="Fill-5" points="12.9897479 21.0051412 14.8577716 23.9956649 17.8479748 21.0051412"></polygon>
                            </g>
                        </g>
                    </g>
                </g>
                <g id="logo-vecto" transform="translate(209.436267, 30.088235)" font-size="88.1407258" font-family="Raleway-Regular, Raleway" letter-spacing="2.41935484" fill="#CB243C" font-weight="normal">
                    <text id="cloud">
                        <tspan x="293.958256" y="83.8831955">cloud</tspan>
                    </text>
                    <text id="clever">
                        <tspan x="0.647889132" y="83.8831955">clever</tspan>
                    </text>
                </g>
            </g>
        </g>
    </g>
</svg>