<?xml version="1.0" encoding="UTF-8" standalone="no"?>
<svg width="201px" height="73px" viewBox="0 0 201 73" version="1.1" xmlns="http://www.w3.org/2000/svg" xmlns:xlink="http://www.w3.org/1999/xlink">
    <!-- Generator: Sketch 39.1 (31720) - http://www.bohemiancoding.com/sketch -->
    <title>Group</title>
    <desc>Created with Sketch.</desc>
    <defs></defs>
    <g id="Page-1" stroke="none" stroke-width="1" fill="none" fill-rule="evenodd">
        <g id="Group">
            <path d="M0.00412790308,15.1419558 L0,57.3941709 L5.86575027,57.3941709 L5.86781422,15.1419558 L0.00412790308,15.1419558 L0.00412790308,15.1419558 Z M83.8707347,15.1460993 L83.8707347,36.352487 L104.845642,36.352487 L104.845642,57.3941709 L110.693849,57.3941709 L110.693849,36.3504153 L110.710361,36.3504153 L110.710361,30.4614785 L89.7271972,30.4614785 L89.7271972,15.1460993 L83.8707347,15.1460993 L83.8707347,15.1460993 Z M173.152118,36.3504153 L200,36.3504153 L200,30.4614785 L173.152118,30.4614785 L173.152118,36.3504153 L173.152118,36.3504153 Z M146.784106,30.4614785 L146.784106,57.3941709 L152.655016,57.3941709 L152.655016,36.3504153 L168.386454,36.352487 L168.386454,30.4614785 L146.784106,30.4614785 L146.784106,30.4614785 Z M115.307813,30.4614785 L115.307813,57.3941709 L121.180787,57.3941709 L121.180787,36.3504153 L136.299232,36.3504153 L136.299232,40.9838742 L125.771015,40.9838742 L125.771015,46.872811 L136.299232,46.872811 L136.299232,57.3941709 L142.164982,57.3941709 L142.164982,30.4614785 L115.307813,30.4614785 L115.307813,30.4614785 Z M52.4243691,30.4614785 L52.4243691,36.352487 L73.3693493,36.352487 L73.3693493,51.50627 L52.4254011,51.4990189 L52.4254011,72.555205 L58.2901193,72.555205 L58.2901193,57.3941709 L79.2392275,57.3941709 L79.2392275,30.4614785 L52.4243691,30.4614785 L52.4243691,30.4614785 Z M10.4941616,36.352487 L37.306956,36.352487 L37.306956,30.4614785 L10.4941616,30.4614785 L10.4941616,36.352487 L10.4941616,36.352487 Z M173.152118,46.872811 L189.576013,46.872811 L189.576013,40.9838742 L173.152118,40.9838742 L173.152118,46.872811 L173.152118,46.872811 Z M10.5323447,46.872811 L26.9541751,46.872811 L26.9541751,40.9838742 L10.5323447,40.9838742 L10.5323447,46.872811 L10.5323447,46.872811 Z M173.156246,57.3941709 L199.996904,57.3941709 L199.996904,51.5073059 L173.156246,51.5073059 L173.156246,57.3941709 L173.156246,57.3941709 Z M10.4941616,57.3941709 L37.306956,57.3941709 L37.306956,51.5073059 L10.4941616,51.5073059 L10.4941616,57.3941709 L10.4941616,57.3941709 Z" id="Fill-1" fill="#000000"></path>
            <polygon id="Fill-2" fill="#F26721" points="83.9116719 15.4184227 68.1388013 20.8201893 68.1388013 15.4542519 83.9116719 10.0946372"></polygon>
            <polygon id="Fill-3" fill="#F26721" points="68.1388013 0 68.1388013 5.33623289 83.9116719 10.7255521 83.9116719 5.36065257"></polygon>
            <polygon id="Fill-4" fill="#F26721" points="89.5899054 15.4184227 105.362776 20.8201893 105.362776 15.4542519 89.5899054 10.0946372"></polygon>
            <polygon id="Fill-5" fill="#F26721" points="105.362776 0 89.5899054 5.36065257 89.5899054 10.7255521 105.362776 5.33623289"></polygon>
            <path d="M126.66001,8.318 C126.439009,8.284 126.201009,8.25 125.94601,8.25 C122.784009,8.25 120.69301,10.358 120.69301,12.755 C120.69301,13.962 121.424009,14.302 122.17201,14.302 C121.93401,13.86 121.81501,13.316 121.81501,12.755 C121.81501,11.072 122.665009,9.219 124.790009,9.219 L125.249009,21 L127.13601,21 L132.253009,8.335 L131.284009,8.335 L126.94901,19.64 L126.66001,8.318 Z M134.956009,12.415 C131.45401,12.415 130.50201,16.461 130.50201,18.416 C130.50201,20.354 131.675009,21.102 133.15401,21.102 C135.24501,21.102 136.63901,18.875 136.843009,15.934 C138.06701,15.781 139.189009,15.271 139.81801,14.54 L139.665009,14.081 C138.81501,14.761 137.897009,15.101 136.87701,15.101 C136.860009,13.367 136.29901,12.415 134.956009,12.415 L134.956009,12.415 Z M133.800009,19.81 C132.74601,19.81 132.372009,19.283 132.372009,18.11 C132.372009,16.41 133.324009,13.35 135.04101,13.35 C135.60201,13.35 135.97601,13.622 136.06101,14.421 C135.63601,14.472 135.33001,14.71 135.33001,15.288 C135.33001,15.696 135.449009,15.985 136.010009,15.985 C135.772009,18.382 134.820009,19.81 133.800009,19.81 L133.800009,19.81 Z M139.070009,10.052 C139.070009,10.681 139.563009,11.174 140.19201,11.174 C140.80401,11.174 141.331009,10.681 141.331009,10.052 C141.331009,9.44 140.80401,8.913 140.19201,8.913 C139.563009,8.913 139.070009,9.44 139.070009,10.052 L139.070009,10.052 Z M138.93401,12.5 L137.778009,17.957 C137.69301,18.365 137.62501,18.807 137.62501,19.215 C137.62501,20.235 137.98201,21.102 139.13801,21.102 C139.88601,21.102 140.991009,20.796 142.09601,17.957 L141.46701,17.957 C140.974009,19.113 140.396009,19.81 139.85201,19.81 C139.427009,19.81 139.325009,19.436 139.325009,19.045 C139.325009,18.773 139.35901,18.484 139.41001,18.28 L140.651009,12.5 L138.93401,12.5 Z M142.606009,12.5 L140.80401,21 L142.504009,21 L143.84701,14.727 C144.32301,14.319 144.91801,13.894 145.41101,13.894 C145.90401,13.894 145.87001,14.319 146.26101,14.319 C146.56701,14.319 147.247009,14.081 147.247009,13.214 C147.247009,12.755 146.975009,12.415 146.295009,12.415 C145.360009,12.415 144.663009,13.18 144.01701,13.894 L144.32301,12.5 L142.606009,12.5 Z M152.10901,11.871 L149.27001,25.25 L151.07201,24.825 L152.04101,20.269 C152.34701,20.762 152.78901,21.102 153.401009,21.102 C156.56301,21.102 157.498009,17.447 157.498009,15.254 C157.498009,13.18 156.64801,12.415 155.45801,12.415 C154.71001,12.415 154.064009,12.721 153.53701,13.18 L153.826009,11.871 L152.10901,11.871 Z M154.64201,13.52 C155.22001,13.52 155.81501,13.928 155.81501,15.288 C155.81501,16.869 155.15201,20.014 153.129009,20.014 C152.85701,20.014 152.46601,19.844 152.211009,19.419 L153.29901,14.353 C153.67301,13.826 154.13201,13.52 154.64201,13.52 L154.64201,13.52 Z M159.861009,9.338 L158.00801,17.957 C157.92301,18.365 157.855009,18.807 157.855009,19.215 C157.855009,20.235 158.212009,21.102 159.368009,21.102 C160.11601,21.102 161.22101,20.796 162.326009,17.957 L161.69701,17.957 C161.20401,19.113 160.62601,19.81 160.082009,19.81 C159.65701,19.81 159.55501,19.436 159.55501,19.045 C159.55501,18.773 159.58901,18.484 159.64001,18.28 L161.629009,9.1 L159.861009,9.338 Z M166.882009,12.5 L165.72601,17.957 C165.48801,19.13 164.65501,19.81 164.009009,19.81 C163.58401,19.81 163.24401,19.504 163.24401,18.841 C163.24401,18.671 163.26101,18.484 163.312009,18.28 L164.55301,12.5 L162.836009,12.5 L161.680009,17.957 C161.612009,18.263 161.57801,18.552 161.57801,18.824 C161.57801,20.235 162.42801,21.102 163.44801,21.102 C164.213009,21.102 165.080009,20.609 165.72601,19.47 C165.81101,20.626 166.355009,21.102 167.086009,21.102 C167.83401,21.102 168.939009,20.796 170.04401,17.957 L169.415009,17.957 C168.92201,19.113 168.344009,19.81 167.800009,19.81 C167.37501,19.81 167.27301,19.436 167.27301,19.045 C167.27301,18.773 167.307009,18.484 167.35801,18.28 L168.599009,12.5 L166.882009,12.5 Z M171.86301,12.313 C171.336009,13.979 170.724009,15.662 169.772009,17.345 C169.313009,17.566 168.87101,18.144 168.87101,18.926 C168.87101,19.963 169.61901,21.102 171.353009,21.102 C172.475009,21.102 174.07301,20.371 174.07301,18.161 C174.07301,17.039 173.86901,16.342 173.64801,11.973 L171.86301,12.313 Z M172.288009,18.178 C172.288009,19.368 171.676009,19.827 170.80901,19.827 C170.06101,19.827 169.70401,19.368 169.70401,18.569 C169.80601,18.739 169.94201,18.807 170.112009,18.807 C170.43501,18.807 170.80901,18.501 170.80901,17.957 C170.80901,17.685 170.707009,17.498 170.57101,17.396 C171.183009,16.172 171.62501,15.05 171.93101,13.792 C172.118009,16.75 172.288009,17.243 172.288009,18.178 L172.288009,18.178 Z M180.89001,9.338 L179.03701,17.957 C178.95201,18.365 178.884009,18.807 178.884009,19.215 C178.884009,20.235 179.24101,21.102 180.397009,21.102 C181.14501,21.102 182.25001,20.796 183.355009,17.957 L182.72601,17.957 C182.23301,19.113 181.65501,19.81 181.11101,19.81 C180.68601,19.81 180.58401,19.436 180.58401,19.045 C180.58401,18.773 180.618009,18.484 180.66901,18.28 L182.658009,9.1 L180.89001,9.338 Z M187.02701,12.415 C183.52501,12.415 182.57301,16.461 182.57301,18.416 C182.57301,20.354 183.74601,21.102 185.225009,21.102 C187.31601,21.102 188.71001,18.875 188.91401,15.934 C190.13801,15.781 191.260009,15.271 191.889009,14.54 L191.73601,14.081 C190.88601,14.761 189.968009,15.101 188.94801,15.101 C188.93101,13.367 188.37001,12.415 187.02701,12.415 L187.02701,12.415 Z M185.87101,19.81 C184.817009,19.81 184.44301,19.283 184.44301,18.11 C184.44301,16.41 185.39501,13.35 187.112009,13.35 C187.67301,13.35 188.04701,13.622 188.13201,14.421 C187.707009,14.472 187.401009,14.71 187.401009,15.288 C187.401009,15.696 187.52001,15.985 188.081009,15.985 C187.843009,18.382 186.891009,19.81 185.87101,19.81 L185.87101,19.81 Z M191.141009,10.052 C191.141009,10.681 191.634009,11.174 192.26301,11.174 C192.87501,11.174 193.40201,10.681 193.40201,10.052 C193.40201,9.44 192.87501,8.913 192.26301,8.913 C191.634009,8.913 191.141009,9.44 191.141009,10.052 L191.141009,10.052 Z M191.005009,12.5 L189.84901,17.957 C189.764009,18.365 189.69601,18.807 189.69601,19.215 C189.69601,20.235 190.05301,21.102 191.20901,21.102 C191.95701,21.102 193.062009,20.796 194.16701,17.957 L193.538009,17.957 C193.045009,19.113 192.46701,19.81 191.92301,19.81 C191.49801,19.81 191.396009,19.436 191.396009,19.045 C191.396009,18.773 191.43001,18.484 191.48101,18.28 L192.72201,12.5 L191.005009,12.5 Z M199.36901,18.909 C199.36901,17.668 200.18501,15.832 200.18501,14.319 C200.18501,13.299 199.81101,12.415 198.43401,12.415 C197.83901,12.415 197.00601,12.585 196.122009,13.775 L196.394009,12.5 L194.677009,12.5 L192.87501,21 L194.575009,21 L195.748009,15.526 C196.30901,14.302 196.921009,13.707 197.635009,13.707 C198.213009,13.707 198.38301,14.081 198.38301,14.642 C198.38301,15.849 197.567009,17.753 197.567009,19.198 C197.567009,20.439 198.17901,21.102 199.02901,21.102 C199.48801,21.102 200.406009,20.915 200.50801,19.691 C200.30401,19.776 200.134009,19.81 199.981009,19.81 C199.57301,19.81 199.36901,19.538 199.36901,18.909 L199.36901,18.909 Z" id="Voir-plus-loin" fill="#000000"></path>
        </g>
    </g>
</svg>