<?xml version="1.0" encoding="utf-8"?>
<!-- Generator: Adobe Illustrator 15.0.0, SVG Export Plug-In . SVG Version: 6.00 Build 0)  -->
<!DOCTYPE svg PUBLIC "-//W3C//DTD SVG 1.1//EN" "http://www.w3.org/Graphics/SVG/1.1/DTD/svg11.dtd">
<svg version="1.1" id="Calque_1" xmlns="http://www.w3.org/2000/svg" xmlns:xlink="http://www.w3.org/1999/xlink" x="0px" y="0px"
	 width="1024px" height="690px" viewBox="145 200 760 451" enable-background="new 0 0 1024 768" xml:space="preserve">
<g>
	<defs>
		<rect id="SVGID_1_" width="1024" height="690"/>
	</defs>
	<clipPath id="SVGID_2_">
		<use xlink:href="#SVGID_1_"  overflow="visible"/>
	</clipPath>
	<path clip-path="url(#SVGID_2_)" d="M253.072,343.525c-11.481-11.479-25.812-20.056-42.594-25.496
		c-10.06-4.705-18.033-9.92-23.688-15.49c-5.966-5.967-8.866-12.96-8.866-21.378c0-8.501,2.898-15.512,8.861-21.435
		c5.965-5.926,12.959-8.806,21.381-8.806c8.423,0,15.42,2.86,21.378,8.736c3.317,3.32,5.732,6.997,7.177,10.93l0.726,1.976
		l14.248-5.629l-0.582-1.829c-1.912-6.006-5.408-11.488-10.37-16.273c-9.005-8.916-19.966-13.437-32.577-13.437
		c-12.699,0-23.662,4.546-32.585,13.512c-8.918,8.966-13.44,19.819-13.44,32.255c0,12.701,4.524,23.664,13.444,32.583
		c8.743,8.744,20.797,15.719,35.697,20.683c12.139,4.973,22.516,11.716,30.841,20.045c9.327,9.329,14.056,20.711,14.056,33.827
		c0,13.207-4.729,24.634-14.056,33.959c-9.329,9.327-20.755,14.057-33.957,14.057c-13.118,0-24.5-4.729-33.827-14.057
		c-8.008-8.005-12.654-17.495-13.809-28.211l-0.282-2.608l-15.065,5.495l0.249,1.659c1.961,13.1,7.959,24.744,17.824,34.605
		c12.36,12.452,27.47,18.766,44.91,18.766c17.437,0,32.546-6.268,44.906-18.629c12.364-12.365,18.633-27.519,18.633-45.036
		C271.705,370.863,265.434,355.798,253.072,343.525"/>
	<path clip-path="url(#SVGID_2_)" d="M478.245,266.676c-21.106-21.102-46.929-31.801-76.75-31.801
		c-29.824,0-55.646,10.699-76.747,31.801c-21.099,21.094-31.797,46.915-31.797,76.744c0,29.829,10.698,55.652,31.797,76.753
		c21.097,21.095,46.918,31.791,76.747,31.791c29.826,0,55.648-10.696,76.75-31.791c21.101-21.106,31.799-46.93,31.799-76.753
		C510.043,313.598,499.346,287.777,478.245,266.676 M401.495,436.056c-25.43,0-47.438-9.137-65.41-27.158
		c-17.977-18.013-27.092-40.043-27.092-65.478c0-25.431,9.115-47.438,27.09-65.41c17.974-17.975,39.982-27.09,65.412-27.09
		c25.429,0,47.435,9.115,65.41,27.09c17.976,17.969,27.09,39.976,27.09,65.41c0,25.437-9.114,47.467-27.092,65.478
		C448.93,426.919,426.924,436.056,401.495,436.056"/>
	<path clip-path="url(#SVGID_2_)" fill="#AECA0B" d="M702.549,228.852l-79.243,217.516L622.301,449h16.827l28.928-78h68.978
		l28.924,78h16.698L702.549,228.852z M731.255,354h-57.421l28.713-78.964L731.255,354z"/>
	<polygon clip-path="url(#SVGID_2_)" fill="#AECA0B" points="784,237 784,253 837,253 837,449 852,449 852,253 905,253 905,237 	"/>
	<path clip-path="url(#SVGID_2_)" fill="#C6C6C5" d="M157.584,551.46c0,0,11.293-2.66,31.198-6.542
		c19.929-3.736,48.391-9.275,82.781-14.484c34.374-5.333,74.617-10.682,117.91-14.989c21.66-2.085,44.047-4.209,66.869-5.634
		c22.804-1.482,46.006-2.67,69.237-3.402c23.229-0.592,46.487-0.705,69.396-0.313c22.896,0.325,45.43,1.629,67.215,3.331
		c43.529,3.564,84.075,10.174,117.791,20.054c33.819,9.56,60.271,23.439,76.362,36.102c8.226,6.142,13.519,12.293,17.128,16.346
		c3.301,4.317,5.074,6.639,5.074,6.639s-1.969-2.133-5.68-6.081c-3.943-3.702-9.844-9.017-18.252-14.488
		c-8.345-5.553-19.115-11.312-32.088-16.43c-12.965-5.12-28.057-9.645-44.783-13.604c-33.46-7.772-73.465-12.654-116.502-15.126
		c-21.519-1.29-43.819-1.695-66.473-1.996c-22.676-0.233-45.719,0.107-68.76,0.818c-23.057,0.554-46.091,1.553-68.78,2.853
		c-22.677,1.354-45.008,2.62-66.594,4.3c-43.182,3.204-83.457,6.921-117.983,10.289c-34.504,3.477-63.307,6.3-83.424,8.737
		C169.093,550.136,157.584,551.46,157.584,551.46"/>
	<path clip-path="url(#SVGID_2_)" fill="#C6C6C5" d="M614.845,170.411c-0.255-0.674,0.595,2.159,1.604,6.457
		c1.021,4.461,2.497,11.04,3.601,19.543c2.335,16.962,3.929,41.711,0.503,71.205c-1.705,14.723-4.502,30.625-9.082,47.064
		c-4.526,16.431-10.339,33.554-18.242,50.458c-7.782,16.927-16.959,33.979-27.975,50.166c-10.88,16.274-23.217,31.929-36.507,46.672
		c-13.437,14.618-27.834,28.289-42.667,40.891c-14.761,12.69-30.336,23.886-45.62,34.236
		c-15.277,10.377-30.679,19.435-45.528,27.457c-14.749,8.184-29.152,15.048-42.523,21.11
		c-26.785,12.068-49.759,20.427-65.968,25.748c-8.041,2.839-14.554,4.546-18.904,5.935c-4.37,1.318-6.692,2.028-6.692,2.028
		s8.791-4.153,24.188-11.44c15.372-7.263,37.087-18.087,62.523-31.957c25.328-14.062,54.305-31.411,83.386-52.525
		c14.614-10.47,29.019-22.166,43.252-34.415c14.191-12.325,27.853-25.644,40.601-39.768c12.893-13.979,24.83-28.797,35.402-44.214
		c10.555-15.413,20.197-31.105,28.059-47.083c16.002-31.826,26.12-63.854,31.628-92.014c5.477-28.18,6.679-52.358,6.442-69.268
		c-0.152-8.452-0.462-15.132-0.885-19.668C615.1,172.642,614.584,169.73,614.845,170.411"/>
</g>
</svg>
